# xmcd
#
# Track frame offsets:
#	150
#	36025
#	73612
#	105450
#	134597
#	146945
#	160737
#	174920
#	202455
#	228185
#	256422
#	280010
#
# Disc length: 4062 seconds
#
# Revision: 1
# Processed by: cddbd v1.5.1PL0 Copyright (c) Steve Scherf et al.
# Submitted via: CDex 1.50Beta5
#
DISCID=af0fdc0c
DTITLE=さまざまなアーティスト - classical eurobeat hits!!
DYEAR=1900
DGENRE=Dnace
TTITLE0=coo coo/upside dowan ( full power d.j.mix )
TTITLE1=lilac/jump to the music ( beat box mix )
TTITLE2=king kong and d.j.ungle girls/lies ( full power d.j.mix )
TTITLE3=malcom j.hill/take a chance ( full power d.j.mix )
TTITLE4=lilac/losing my mind
TTITLE5=coo coo/easy lover
TTITLE6=valentino/you are the sunshine
TTITLE7=king kong and d.j.ungle girls/bad man
TTITLE8=donna luna/i will never try to change you
TTITLE9=rene froger/are you ready for loving me ( 12" pwl party mix )
TTITLE10=coo coo/winner
TTITLE11=king kong and d.j.ungle girls/love and american dollars ( american mix )
EXTD=
EXTT0=
EXTT1=
EXTT2=
EXTT3=
EXTT4=
EXTT5=
EXTT6=
EXTT7=
EXTT8=
EXTT9=
EXTT10=
EXTT11=
PLAYORDER=
